<svg width="40" height="40" viewBox="0 0 40 40" fill="none" xmlns="http://www.w3.org/2000/svg">
  <rect width="40" height="40" rx="8" fill="oklch(0.6180 0.0778 65.5444)"/>
  <path d="M12 10H20C23.3137 10 26 12.6863 26 16C26 18.1564 24.8638 20.0481 23.1481 21.1174C25.4385 22.1122 27 24.3708 27 27C27 30.866 23.866 34 20 34H12V10Z" fill="white"/>
  <path d="M17 15V20H20C21.1046 20 22 19.1046 22 18C22 16.8954 21.1046 16 20 16H17V15Z" fill="oklch(0.6180 0.0778 65.5444)"/>
  <path d="M17 24V29H20C21.6569 29 23 27.6569 23 26C23 24.3431 21.6569 23 20 23H17V24Z" fill="oklch(0.6180 0.0778 65.5444)"/>
</svg>
